<?xml version="1.0" encoding="UTF-8"?><svg id="Calque_2" xmlns="http://www.w3.org/2000/svg" viewBox="0 0 550 550"><defs><style>.cls-1{fill:#8e6bac;}</style></defs><g id="Calque_1-2"><g><rect class="cls-1" width="550" height="550"/><g><path d="m538.42,550c-2.05-.68-4.51-.84-6.08-2.11-31.39-25.31-66.65-42.78-105.79-52.38-24.19-5.94-48.76-8.26-73.64-7.41-.64.02-1.27.15-2.54.31,0,6.86,0,13.62,0,20.38,0,1.5.3,3.08-.1,4.47-.39,1.36-1.49,2.51-2.27,3.75-.75-1.23-2.11-2.44-2.14-3.68-.19-8.48-.1-16.97-.1-25.46,0-8.82-.03-17.64,0-26.46.04-9.17-3.91-15.84-12.05-20.2-13.22-7.07-27.51-10.73-42.16-12.83-22.55-3.22-45.17-5.81-68.04-4.31-18.15,1.19-35.29,5.61-51.2,14.71-8.02,4.59-11.88,11.15-11.81,20.35.11,15.47.03,30.95.03,46.42,0,1.33.24,2.75-.14,3.97-.33,1.07-1.37,1.91-2.1,2.85-.75-1.04-2.12-2.07-2.15-3.14-.2-6.82-.11-13.64-.11-20.46,0-3.31,0-6.63,0-10.82-7,.45-13.72.66-20.39,1.36-40.84,4.26-79.67,15.46-116.42,33.86-1.37.69-3.4.07-5.12.06,1.07-1.38,1.85-3.33,3.26-4.05,33.89-17.16,69.63-28.4,107.37-33.08,10.21-1.26,20.48-2.12,31.04-3.19,1.24-10.54-2.48-22.21,5.85-31.39,7.54-8.3,18.02-11.55,28.36-15.96,1.37-16.4,2.77-33.1,4.21-50.34-.99.49-1.63.63-2.02,1.02-36.55,36.95-90.8,36.11-130.21,8.8-33.67-23.32-50.47-56.34-50.37-97.22.12-49.26,36.94-92.58,84.98-101,13.55-2.38,27.14-1.97,40.57,1.29,1.11.27,2.27.35,3.28.5.85-9.05,1.1-18.03,2.63-26.78,9.49-54.27,39.07-94.07,87.82-119.3,32.24-16.68,66.83-22.71,102.89-18.74,61.61,6.79,110.26,35.27,143.96,87.88,10.02,15.64,16.55,32.85,20.7,50.95,1.44,6.29,1.09,6.64-5.68,6.65-13.77.01-27.54,0-41.23,0,2.43,11.66,4.73,23.16,7.39,34.57.21.91,2.88,1.76,4.41,1.77,13.81.14,27.62.25,41.42-.02,4.61-.09,5.99,1.44,6.06,5.97.26,17.38-.22,34.63-7.33,50.88-7.13,16.3-18.32,28.42-36.05,33.21-3.65.99-7.5,1.22-10.43,1.67-5.56,15.43-10.1,30.92-16.69,45.47-5.43,11.99-12.1,23.83-20.3,34.08-22.86,28.59-53.04,35.65-87.72,26.75-1.59-.41-3.17-.88-5.34-1.48-.65,9.94-1.29,19.62-1.95,29.68,3.33,1.62,6.72,3.26,10.1,4.92,10.51,5.14,15.42,13.66,15.32,25.25-.06,6.94-.01,13.89-.01,21.27,70.84-1.82,133.59,18.85,188.05,63.72v3Zm-83.4-344.29c-2.94-11.99-5.57-23.27-8.62-34.43-.42-1.53-2.8-3.21-4.53-3.59-14.07-3.09-26.38-9.46-35.8-20.3-9.91-11.4-19.02-23.5-28.47-35.31-1.08-1.35-2.08-2.78-3.44-4.61-27.07,53.19-68.09,83.5-129.02,82.12-.22,1.99-.14,3.72-.68,5.22-.29.79-1.62,1.55-2.55,1.63-.55.05-1.54-1.14-1.77-1.93-.31-1.08-.05-2.31-.07-3.47-.25-15.28-15.6-28.38-30.83-26.31-22.52,3.06-37.78,25.19-32.76,47.51,4.56,20.25,21.16,33.25,42.19,33.2,1.45,0,2.9,1.18,4.34,1.81-1.36.84-2.66,2.23-4.09,2.39-3.21.36-6.49.11-9.82.11-4.78,58.24-9.53,116.14-14.27,174.01,42.72-9.32,84.05-3.32,125.34,5.97,2.19-3.92-.93-5.77-3.4-7.96-22.15-19.71-42.18-41.07-53.78-69.01-.38-.9-1.05-1.68-1.55-2.53-11.53-19.4-23.07-38.8-34.59-58.2-.42-.71-1.02-1.49-1.01-2.23,0-1.01.52-2.01.82-3.02,1,.3,2.33.3,2.94.96.99,1.06,1.48,2.57,2.23,3.86,10.34,17.61,19.87,35.75,31.22,52.67,15.14,22.56,34.53,40.87,60.2,51.4,35.63,14.61,70.7,6.47,93.6-21.93,15.94-19.76,24.86-42.95,31.74-67.05.93-3.26,1.59-6.6,2.32-9.69-4.61-1.57-8.69-2.55-12.4-4.3-23.55-11.12-34.26-30.95-36.69-55.85-.83-8.52-.13-17.19-.13-26.05h-11.08c-.67,8.41-1.14,16.54-2.01,24.63-1.27,11.85-4.05,23.32-11.38,33.03-24.71,32.67-84.25,33.77-106.28-10.98-7.31-14.85-8.99-30.4-4.93-46.98-4.99,0-9.63.19-14.25-.08-2.31-.14-5.84,1.71-6.3-2.37-.06-.52,4.26-2.21,6.56-2.21,65.21-.12,130.43-.1,195.64-.1,2.13,0,4.25,0,7.37,0Zm-183.89,4.92c-3.21,8.75-3.43,17.78-1.86,26.59,6.25,34.99,34.06,54.96,69.16,49.04,21.42-3.61,36.88-15.45,42.93-37.24,1.68-6.04,2.53-12.36,3.23-18.61.73-6.51.81-13.09,1.19-19.78h-114.65Zm185.63,81.77c10.21-.19,18.72-3.39,25.99-9.63,22.41-19.2,23.69-45.2,23.55-72.07h-46.43c3.05,27.29,2.4,54.2-3.11,81.69Zm-4.56-1.05c5.37-25.89,5.98-51.64,3.42-77.56-.3-3-1.75-3.38-4.24-3.36-12.46.08-24.92.03-37.38.03-2.41,0-4.81,0-7.1,0-6.52,47.48,16.81,77.72,45.3,80.89Z"/><path d="m400.61,260.1c-.54,8.61,2,16.1,8.98,22.31,7.62,6.78,7.12,15.18-.6,22.47-1.8,1.7-3.78,3.27-5.9,4.53-.82.49-2.26-.07-3.42-.15.27-1.14.17-2.63.87-3.34,1.85-1.88,4.2-3.26,6.06-5.13,4.97-4.99,5.38-10.21.09-14.71-9.72-8.26-11.51-18.95-10.74-30.62.11-1.67,1.55-3.25,2.38-4.87.76,1.72,1.72,3.39,2.22,5.19.35,1.23.07,2.64.07,4.31Z"/><path d="m395.76,349.91c-17.5-.9-30.72-8.01-39.88-22.11-.86-1.32-.52-3.43-.73-5.17,1.5.89,3.5,1.43,4.41,2.74,10.1,14.46,23.68,21.18,41.39,19.41,1.4-.14,2.94,1.15,4.41,1.78-1.32.92-2.53,2.22-4,2.66-2.03.6-4.26.55-5.6.7Z"/><path d="m203.41,186.52c-.8.15-2.89.82-5.01.89-1.66.06-3.35-.62-5.02-.97,1.34-1.18,2.5-2.98,4.05-3.44,13.94-4.19,29.44,4.38,33.28,18.51.67,2.45-.04,7.63-.56,7.69-4.67.54-2.85-3.8-3.56-6.03-3.11-9.79-11.77-16.6-23.17-16.65Z"/><path d="m343.93,185.53c2.23.3,5.74.48,9.08,1.32,1.61.41,2.91,2.05,4.35,3.13-1.7.48-3.53,1.62-5.08,1.32-9.02-1.73-17.84-1.4-26.32,2.17-3.78,1.59-7.16,4.08-10.87,5.87-1.47.71-3.32.63-5,.91.82-1.58,1.24-3.69,2.52-4.65,8.86-6.69,18.99-9.84,31.31-10.08Z"/><path d="m417.41,181.34c13.16.78,24.33,6.23,33.08,16.41.98,1.14.78,3.29,1.13,4.97-1.45-.64-3.33-.9-4.3-1.98-8.96-9.97-20.14-14.75-33.44-15.09-1.46-.04-2.89-1.24-4.34-1.9,1.37-.8,2.66-1.81,4.13-2.34,1.03-.37,2.3-.07,3.74-.07Z"/><path d="m369.25,240.75c-2.34,5.49-3.76,11.03-6.8,15.46-4.24,6.2-11.6,5.9-16.56.25-6.87-7.83-6.91-23.53-.09-31.44,5.02-5.82,12.59-6.01,16.88.41,2.9,4.35,4.25,9.74,6.56,15.32Z"/><path d="m448.65,246.37c.11,6.2-1.42,11.86-5.8,16.42-4.64,4.84-10.59,4.78-15.34.03-7.82-7.82-7.82-25.03,0-32.87,4.85-4.86,11.08-4.79,15.69.36,4.08,4.55,5.6,10.04,5.44,16.06Z"/></g></g></g></svg>