<?xml version="1.0" encoding="UTF-8"?><svg id="Calque_2" xmlns="http://www.w3.org/2000/svg" viewBox="0 0 550 550"><defs><style>.cls-1{fill:#adb982;}</style></defs><g id="Calque_1-2"><g><rect class="cls-1" width="550" height="550"/><g><path d="m267.97,21.28c6.61,1.45,13.37,2.44,19.8,4.47,6.29,1.99,12.14,6.81,18.36,7.13,6.17.32,12.43-4.01,18.85-5.27,20.24-3.97,39.69-1.35,57.85,8.7,9.58,5.3,16.82,12.84,20.9,23.26.57,1.46,2.58,3.19,4.07,3.34,42.98,4.36,64.4,51.18,46.46,88.45-7.06,14.68-17.58,26.26-32.15,33.63-4.56,2.31-5.55,5.05-4.3,9.95,16.56,1.75,30.46,8.91,40.17,23.11,7.24,10.59,9.59,22.38,8.61,35.08-1.81,23.57-20.45,41.42-49.78,46.45,0,7.03.51,14.33-.09,21.54-2.39,28.6-22.48,51.77-50.41,58.66-1.43.35-2.83.81-4.36,1.25v59.58c2.91,0,5.67,0,8.44,0,35.99.09,64.47,14.97,85.51,43.98,14.25,19.64,28.09,39.58,42.11,59.4.67.95,1.61,1.87,1.84,2.93.19.9-.21,2.21-.83,2.89-.35.38-1.99.17-2.52-.33-1.19-1.12-2.09-2.56-3.05-3.91-13.92-19.67-27.6-39.53-41.81-58.99-21.72-29.76-51.57-42.73-88-41.48-.47.02-.92.28-1.61.5v41.69c.28.19.56.38.84.57,3.04-4.4,5.98-8.87,9.19-13.14.92-1.22,2.63-1.83,3.98-2.72-.06,1.73.5,3.84-.29,5.13-15.69,25.95-38.9,41.33-68.32,47.33-56.71,11.57-102.73-29.86-113.25-73.53-1.2-4.96-3.26-6.16-7.99-6.01-13.12.43-26.28-.02-39.4.6-19.76.94-36.53,9.11-50.54,22.91-13.39,13.19-26.6,26.57-39.89,39.86-.94.94-1.78,2.12-2.91,2.69-.83.42-2.38.39-3.02-.14-.49-.41-.35-2.07.06-2.91.48-1,1.53-1.72,2.35-2.54,13.17-13.18,26.33-26.37,39.52-39.53,16.81-16.76,36.99-25.36,60.83-25.24,17.43.09,34.86.02,52.62.02v-76.86c-6.98-3.97-14.35-7.45-20.95-12.05-22.79-15.87-32.45-41.95-26.46-69.17.56-2.54-.46-5.59-1.26-8.24-1.85-6.14-3.93-12.22-6.09-18.26-1.13-3.17-2.05-6.67-4.06-9.24-14.22-18.2-24.6-38.09-29.05-60.98-7.83-40.24,13.82-79.18,52.17-93.29.6-.22,1.2-.45,1.64-.62.92-23.14,14.58-38.42,31.35-51.52,13.21-10.32,28.44-16.23,45.16-18.16.94-.11,1.83-.61,2.74-.93,5.66,0,11.31,0,16.97,0Zm-25.31,223.81c-8.34,0-16.3,0-24.26,0-3.7,0-7.71-.9-9.73,4.59-1.6-2-2.65-3.38-3.77-4.7-3.32-3.92-6.23-8.33-10.11-11.6-7.23-6.09-15.81-8.92-25.03-5.32-9.08,3.54-13.41,11.29-14.35,20.58-.89,8.83,1.6,17.15,6.54,24.56,10.13,15.21,24.76,23.86,42.27,27.53,5.41,1.13,7.14,3.05,6.79,8.43-.39,5.94-.53,12.08.51,17.9,5.41,30.32,28.41,49.68,59.22,49.93,26.27.21,52.54.1,78.81-.01,4.62-.02,9.36-.26,13.84-1.28,35-7.97,54.2-39.39,48.55-76.55-18.65-1.55-32.72-10.59-42.61-26.54-.38.64-.65.89-.65,1.14-.01,1-.05,2.01.12,2.99,1.94,10.8-2.51,17.83-12.39,22.2-2.86,1.26-5.02,4.09-7.58,6.1-.8.63-1.87.93-2.81,1.38-.38-1.14-1.32-2.45-1.03-3.38.47-1.5,1.49-3.09,2.73-4.03,2.49-1.89,5.21-3.54,7.99-4.99,7.9-4.1,9.83-7.75,8.57-16.44-.9-6.24-1.63-12.51-2.5-18.76-1.56-11.16-3.17-22.31-4.88-34.36-4.78.72-9.16,1.39-13.76,2.08,12.86,37-10.45,67.07-39.22,71.9-30.96,5.2-60.95-17.38-61.27-53.34Zm-31.5,98.28c-.17,2.29-.26,2.95-.26,3.6,0,42.57-.05,85.14.09,127.7,0,2.27,1.03,4.88,2.39,6.76,36.73,50.86,99.58,51.1,140.89,14.77,1.5-1.32,2.66-3.88,2.68-5.88.19-22.28.06-44.56.18-66.84.02-3.14-1.06-4.24-4.09-4.85-10.71-2.17-21.49-4.16-31.97-7.18-20.81-6-41.01-13.47-57.23-28.77-1.1-1.04-2.9-1.6-4.46-1.86-10.36-1.7-19.64-5.82-28.03-12.08-8.52-6.36-14.75-14.6-20.18-25.37Zm130.07-120.45c8.98-4.52,18.02-3.26,26.81,1.45,9.68-18.08,24.67-27.44,44.66-29.44,0-4.1-.44-7.97.08-11.71,1.5-10.71-1.07-19.44-10.65-25.5-1.92-1.21-3.42-3.16-4.93-4.93-7.77-9.07-15.49-18.2-23.28-27.37-47.89,24.32-62.28,27.06-117.33,22.3-.21.24-.49.45-.61.73-10.51,23.84-24.84,45.06-43.38,63.41-.76.76-1.59,1.91-1.6,2.89-.13,8.44-.07,16.87-.07,25.85,9.66,0,18.78-.13,27.89.07,3.46.08,4.72-.9,5.46-4.53,4.82-23.66,26.29-41.19,50.39-41,20.49.16,35.77,9.73,46.57,27.75Zm-93.45,24.39c.05,26.19,20.97,47.22,47.11,47.36,26.07.14,47.7-21.52,47.55-47.6-.16-26.36-21.35-47.28-47.79-47.19-26.17.09-46.91,21.09-46.86,47.43Zm169.74,47.15c18.31-1.67,31.7-10.14,39.6-26.03,8.56-17.21,6.94-34.19-4.43-49.72-8.54-11.66-20.37-17.76-35.17-18.81v94.56Zm-5.11-.28v-93.97c-21.88-.9-43.54,20.66-44.79,43.44-1.74,31.5,24.12,50.88,44.79,50.53Zm-215.6,151.11c2.87,8.11,5.41,15.28,7.96,22.45.36-.14.73-.29,1.09-.43v-22.02h-9.04Z"/><path d="m346.46,338.14c-12.78.12-24.19-3.86-34.14-11.78-1.23-.98-1.53-3.14-2.27-4.75,1.71.41,3.77.34,5.08,1.29,16.12,11.73,33.29,13.92,51.77,6.31,1.52-.63,3.5-.13,5.26-.15-1.16,1.47-2.04,3.79-3.52,4.26-7.2,2.28-14.57,4.06-21.87,6.01-.1-.4-.21-.8-.31-1.2Z"/><path d="m195.93,266.68c-.33.35-1.11,1.86-1.95,1.9-.87.04-2.45-1.25-2.61-2.15-1.58-9.21-6.82-14.78-15.89-16.98-.9-.22-1.46-1.81-2.18-2.77,1.07-.55,2.15-1.6,3.21-1.57,8.47.21,19.53,12.06,19.42,21.57Z"/><path d="m289.62,175.24c4.78,1.18,9.6,2.2,14.29,3.67,1.16.37,1.87,2.2,2.78,3.37-1.4.28-3.04,1.18-4.17.76-11.57-4.35-22.38-3.24-32.63,3.79-1.05.72-2.87.34-4.34.46.54-1.34.69-3.19,1.68-3.95,6.51-4.99,13.91-7.56,22.38-8.1Z"/><path d="m369.51,183.23c-.9-1.15-1.68-2.15-2.35-3,2.48-7.86,24.84-6.72,33.71,1.59-.79.97-1.59,1.95-2.58,3.16-9.2-7.07-18.76-7.93-28.78-1.75Z"/><path d="m314.92,240.47c-1.8,5.01-2.92,10.08-5.36,14.4-2.69,4.77-7.56,4.49-10.97.15-5.26-6.71-5.34-22.35-.13-29.2,3.71-4.88,8.58-4.98,11.49.46,2.28,4.24,3.27,9.17,4.97,14.2Z"/><path d="m384.32,240.09c1.89-5.09,3.06-10.32,5.67-14.68,2.73-4.57,7.25-4.13,10.58.13,5.52,7.05,5.5,22.61-.04,29.6-3.38,4.27-8.34,4.46-10.98-.36-2.38-4.34-3.42-9.42-5.23-14.69Z"/></g></g></g></svg>