<?xml version="1.0" encoding="UTF-8"?><svg id="Calque_2" xmlns="http://www.w3.org/2000/svg" viewBox="0 0 550 550"><defs><style>.cls-1{fill:#e6614b;}</style></defs><g id="Calque_1-2"><g><rect class="cls-1" width="550" height="550"/><g><path d="m163.54,23.33c17.2,3.63,30.51,14.01,43.03,25.19.69-.17,1.14-.13,1.3-.33,9.05-11.02,24.52-12.04,36.04,1.87,5.05,6.1,9.19,13.01,13.24,19.86,4.39,7.42,8.18,15.19,12.25,22.83,4.96-1.48,9.86-3.61,14.97-4.37,36.25-5.36,63.27,26.11,53.21,61.89-3.77,13.39-8.36,26.55-11.78,40.02-2.81,11.07-3.96,22.55-6.7,33.64-3.53,14.25-10.77,26.35-23.14,34.96-1.22.85-2.29,2.87-2.29,4.36-.13,28.95-.15,57.89-.06,86.84.02,6.29,2.89,8.89,8.95,8.9,23.45,0,46.9,0,70.35,0,37.92,0,70.35,13.17,97.07,40.24,12.5,12.67,25.15,25.19,37.74,37.78.82.82,1.95,1.53,2.35,2.53.41,1.02.1,2.34.1,3.53-1.05-.1-2.27.1-3.1-.37-1.12-.63-1.96-1.77-2.9-2.71-12.94-12.94-25.83-25.93-38.82-38.81-25.05-24.82-55.23-37.32-90.5-37.41-24.77-.06-49.54-.01-75.3-.01,3.49,6.82,6.34,13.26,9.97,19.23,2.69,4.42,2.23,6.87-1.98,10.14-26.77,20.83-53.29,41.97-79.9,62.99-4.72,3.73-5.62,3.41-7.11-2.33-1.74-6.72-3.48-13.44-6.05-20.19-1.02,8.69-2.06,17.38-3.04,26.07-2.57,22.77-5.11,45.55-7.67,68.32-.7,6.27-1.34,12.55-2.25,18.8-.17,1.16-1.48,2.16-2.27,3.23-.67-1.29-2.02-2.66-1.9-3.87,1.77-17.51,3.73-35.01,5.67-52.51,2.14-19.31,4.32-38.62,6.47-57.93.38-3.44.75-6.89,1.27-11.68-8.15,7.02-15.35,13.29-22.65,19.44-1.34,1.13-3.09,1.76-5.87,3.3.57-22.75,1.1-43.95,1.65-65.58-16.89,1.01-32.6,4.74-47.67,10.91-42.82,17.51-73.4,47.59-91.59,90.2-.13.3-.19.69-.42.9-1.36,1.26-2.76,2.47-4.15,3.71-.06-1.77-.7-3.77-.09-5.28,7.08-17.75,16.92-33.87,29.64-48.13,28.71-32.2,64.63-50.83,107.32-56.56,3.27-.44,6.55-1.59,9.78-1.44,10.39.49,12.67-6.34,13.89-14.46.28-1.89.88-3.73,1.36-5.71-19.08.64-30.23-6.21-35.11-24.52-4.12-15.45-6.75-31.51-8.01-47.46-3.32-41.92,3.05-83.19,10.3-124.32.49-2.77.94-5.56,1.37-8.34.05-.3-.13-.63-.28-1.24-17.92-5.79-28.85-19.19-36.48-35.67-7.59-16.37-13.3-33.25-12.19-51.78.95-15.95,11.97-35.02,30.32-37.98.26-.04.46-.44.69-.67,3.66,0,7.32,0,10.98,0Zm3.07,182.75c-4.48,33.18-6.17,66.65-.74,100.07,1.71,10.52,4.52,21.16,8.76,30.9,5.13,11.79,16.39,16.54,28.62,12.64,7.58-2.42,15.09-6.31,21.46-11.1,23.22-17.47,43.75-37.83,61.8-60.62,1.5-1.89,2.49-4.73,2.52-7.15.21-15.8.16-31.6.03-47.41-.03-3,.85-4.78,3.54-6.36,7.13-4.21,12.07-10.33,14.2-18.46,1.44-5.48-.26-10.49-4.17-12.77-3.6-2.1-9.86-1.26-13.23,2.61-2.89,3.32-4.87,7.42-7.33,11.13-.78,1.17-1.78,2.2-2.68,3.29-1.05-1.12-2.52-2.06-3.08-3.39-4.53-10.73-6.74-21.91-5.18-33.55.88-6.52,2.39-12.96,3.69-19.8-1.2,0-2.65-.11-4.08.02-15.72,1.4-31.43,2.81-47.14,4.28-15.05,1.41-30.09,3.33-45.2.77-3.18-.54-3.53,1.35-3.92,3.67-1.22,7.36-2.64,14.69-3.8,22.07-1.28,8.13-2.35,16.29-3.61,25.07,8.36-3.53,16.1-4.96,24.02-2.06,1.23.45,2.04,2.05,3.04,3.11-1.38.39-2.92,1.39-4.11,1.07-6.53-1.76-12.78-1.38-18.99,1.29-1.25.54-2.77.45-4.44.69Zm48.06,207.62c.74-.22,1.12-.23,1.35-.42,23.67-19.84,47.37-39.66,70.92-59.64,1.35-1.14,2.09-3.7,2.1-5.61.15-20.44.1-40.87.08-61.31,0-1.02-.27-2.03-.5-3.62-5.87,6.58-11.47,12.47-16.62,18.74-4.49,5.47-9.01,11.03-12.57,17.11-13.92,23.72-30.38,45.15-52.87,61.48-1.07.78-2.26,2.86-1.94,3.86,3.17,9.86,6.65,19.63,10.04,29.41Z"/><path d="m207.32,204.34c-.77,9.42-1.53,18.84-2.3,28.26-.37,4.56-2.33,8.13-6.13,10.85-3.35,2.4-4.99,5.7-3.62,9.96,1.36,4.23,4.44,5.79,8.69,6.06,1.25.08,2.43,1.4,3.64,2.15-1.24.77-2.44,2.1-3.73,2.22-5.55.48-9.71-2.16-12.15-6.96-2.43-4.77-2.83-10.73,1.41-13.82,8.27-6.03,7.39-14.55,8.29-22.75.6-5.43.61-10.94,1.33-16.35.26-1.94,1.83-3.71,2.8-5.56.89,1.86,1.78,3.72,2.67,5.58-.3.12-.6.25-.89.37Z"/><path d="m236.24,226.11c-.91,3.05-1.4,6.39-2.87,9.21-1.99,3.8-5.59,3.7-7.63-.11-3.16-5.9-3.22-12.09-.15-18.05,2.2-4.28,6.03-4.24,8.15.13,1.26,2.59,1.63,5.62,2.5,8.81Z"/><path d="m187.25,226.06c-1.09,3.37-1.69,6.67-3.19,9.48-1.79,3.38-4.81,3.3-7.15.3-3.36-4.3-3.32-15.64.12-19.77,2.35-2.82,5.09-2.92,6.83.21,1.62,2.92,2.26,6.38,3.39,9.77Z"/><path d="m207.19,307.17c-3.66-.92-7.42-1.59-10.94-2.89-1.23-.45-1.9-2.45-2.82-3.74,1.42-.18,3.02-.88,4.24-.48,14.3,4.77,25.12.17,31.92-13.58.56-1.14,2.27-1.71,3.45-2.54.25,1.43,1.06,3.03.66,4.25-3.38,10.47-14.82,18.37-26.51,18.97Z"/><path d="m227.74,200.01c7.51.05,12.85,2.07,17.18,6.23.88.85.74,2.77,1.06,4.2-1.31-.23-2.99-.02-3.86-.77-5.81-5.01-12.22-5.99-19.45-3.87-1.17.34-2.73-.63-4.11-1,.95-1.14,1.7-2.82,2.91-3.3,2.41-.95,5.08-1.23,6.26-1.49Z"/></g></g></g></svg>