<?xml version="1.0" encoding="UTF-8"?><svg id="Calque_2" xmlns="http://www.w3.org/2000/svg" viewBox="0 0 550 550"><defs><style>.cls-1{fill:#e6614b;}</style></defs><g id="Calque_1-2"><g><rect class="cls-1" width="550" height="550"/><g><path d="m138.62,11.17c21.56,4.99,37.14,19.81,53.99,32.61,2.13,1.62,5.38,2.69,8.03,2.55,16.08-.87,32.13-2.87,48.21-3.19,37.99-.77,58.47,26.11,65.33,49.3,6.49,21.9,4.12,43.38-4.49,64.28-1.28,3.11-1.21,5.09,1.11,7.86,8.13,9.68,7.81,22.95-.3,33.53-7.65,9.99-18.37,14.46-30.3,16.51-2.58.45-3.53,1.23-4.06,3.84-5.73,27.98-3.02,55.14,7.38,81.66,1.14,2.9,2.76,3.99,5.86,4.12,33.02,1.34,64.85,8.28,94.92,22.02,73.14,33.4,120.42,89.48,143.37,166.14,4.97,16.61,7.65,33.92,11.19,50.95.28,1.34-.99,3-1.54,4.5-.93-1.3-2.47-2.52-2.69-3.93-3.85-25.34-9.62-50.24-19.39-73.95-32.8-79.56-90.33-131.35-173.84-153.6-1.72-.46-3.49-.73-6.24-1.3-5.38,17.57-11.09,34.68-15.84,52.06-9.08,33.2-15.04,67.03-18.1,101.3-2.18,24.33-3.42,48.74-5.25,73.1-.16,2.16-1.61,4.23-2.46,6.34-.72-2.08-2.13-4.19-2.06-6.24,2.57-76.86,12.05-152.54,38.97-225.2.23-.61.44-1.23,1.04-2.95-14.91-1.82-29.45-3.6-44.38-5.42-1.05,2.61-1.91,4.69-2.72,6.79-16.68,43.12-36.59,84.68-59.93,124.59-7.92,13.54-16.78,26.37-28.98,36.55-10,8.33-21.4,13.39-34.39,14.25-25.2,1.66-42.92-12.71-46.28-37.97-5.9-44.42.53-87.37,16.39-129.08.57-1.51,1.11-3.04,2.24-6.14-8.58,3.17-15.99,5.75-23.23,8.73-1.41.58-2.45,2.59-3.21,4.16-32.56,67.24-58.03,137.07-76.2,209.55-.48,1.93-.7,3.98-1.53,5.75-.52,1.11-1.94,1.81-2.95,2.69-.47-1.28-1.49-2.65-1.3-3.83.55-3.42,1.55-6.78,2.42-10.15,17.64-68.81,41.71-135.28,72.26-199.41.49-1.02.87-2.09.56-4.06-5.31,3.68-10.86,7.05-15.9,11.08-26.62,21.28-42.79,49.53-53.35,81.33-7.62,22.96-11.7,46.66-13.16,70.77-1,16.59-1.32,33.22-2.12,49.83-.07,1.49-1.43,2.93-2.19,4.39-.84-1.38-2.42-2.76-2.4-4.12.43-39.44,2.2-78.74,13.78-116.87,8.96-29.51,22.71-56.36,44.69-78.4,20.84-20.91,45.91-33.7,75.29-37.4,6.21-.78,12.61-.11,19.74-.11,1.77-8.04,3.49-15.85,5.28-23.96-3.46-.69-6.39-1.12-9.24-1.87-14.27-3.76-22.77-13.62-27.93-26.85-5.33-13.68-6.44-28.1-6.96-42.57-1.28-35.89,3.92-70.84,15.87-105.02-12.17-9.56-22.57-20.7-30.64-33.86-5.75-9.37-10.97-19-12.34-30.17-2.16-17.58,6.95-30.42,24.31-34.34,1.25-.28,2.47-.74,3.7-1.12,3.99,0,7.99,0,11.98,0Zm137.92,150.81c-.77-.51-1.19-.78-1.6-1.06-40.88-28.08-85.31-35.87-133.24-23.11-1.7.45-3.73,2.66-4.17,4.41-6.87,27.15-8.29,54.81-6.69,82.64.71,12.27,2.47,24.46,7.88,35.76,5.54,11.57,14.31,19.16,27.22,20.91,11.25,1.53,22.11-.87,31.46-7.08,9.23-6.13,17.55-13.61,26.39-20.33,1.29-.98,3.27-1.04,4.94-1.53-.61,1.63-.8,3.68-1.91,4.82-5.68,5.8-12.03,11-17.35,17.1-10.78,12.36-22,24.02-37.04,31.32-1.35.66-2.31,2.62-2.94,4.18-2.17,5.38-3.9,10.94-6.25,16.23-.75,1.7-2.91,2.77-4.43,4.13.06-1.91-.24-3.93.27-5.71.88-3.07,2.28-5.98,3.85-9.95-7.15.38-13.25.73-19.36,1.03-3.54.18-5.4,1.95-6.75,5.33-9.21,23.1-15.44,46.98-17.97,71.69-2.07,20.2-2.67,40.51.82,60.66,3.2,18.53,15.34,30.52,31.92,31.97,14.57,1.27,27.59-2.58,39.13-11.58,11.75-9.17,20.31-20.98,27.82-33.61,24.5-41.18,45.1-84.25,62.15-129.01.71-1.85.51-4.52-.26-6.4-9.21-22.51-13.66-45.74-11.15-70.09.64-6.2,1.46-12.38,2.21-18.61-.85-.15-1.36-.15-1.8-.33-1.63-.69-3.23-1.44-4.84-2.17,1.71-.88,3.34-2.2,5.16-2.55,3.57-.69,7.29-.58,10.87-1.25,11.12-2.09,20.94-6.52,27.34-16.46,5.61-8.71,5.07-19.48-1.16-26.38-5.94-6.58-15.61-7.61-25.15-2.3-3.3,1.84-6.1,4.55-9.28,6.63-1.17.77-2.8.84-4.22,1.23.41-1.51.41-3.38,1.33-4.45,1.83-2.11,4.16-3.78,6.81-6.09Zm28.51-3c-.46-2.92-.3-5.33-1.23-7.21-7.69-15.7-20.81-25.63-36.18-32.79-37.14-17.31-75.95-21.46-116.09-13.86-1.49.28-3.45,1.67-3.94,3-2.92,8.02-5.47,16.18-8.08,24.08.69.52.84.72.95.7.81-.12,1.63-.24,2.42-.45,19.82-5.2,39.92-6.68,60.24-4.07,27.64,3.54,53.01,13.02,75.65,29.52,1.12.82,3.22,1.3,4.42.82,6.84-2.71,13.61-2.37,21.84.27Z"/><path d="m394.72,547.84c-.33.38-1.1,1.27-1.87,2.16-.92-.93-2.4-1.72-2.67-2.81-2.7-11.09-5.11-22.26-7.78-33.36-2.52-10.45-5.25-20.86-7.89-31.28-.12-.48-.38-1.02-.27-1.45.38-1.53.89-3.03,1.34-4.54,1.01,1.08,2.57,2,2.93,3.27,2.17,7.64,4.18,15.33,6.03,23.05,3.24,13.52,6.32,27.07,9.46,40.62.26,1.13.38,2.28.72,4.35Z"/><path d="m173.22,167.58c3.76,1.13,5.16-1,5.82-4.5,1.07-5.7,2.22-11.39,3.64-17,.3-1.2,1.93-2.06,2.94-3.08.49,1.36,1.58,2.83,1.37,4.07-.98,5.88-2.32,11.69-3.52,17.53-1.21,5.88-3.73,7.32-10.18,7.66-2.53.13-5.82,1.88-7.12,3.93-.97,1.53.09,5.15,1.41,7.04.91,1.31,3.8,1.2,5.78,1.8,1.39.43,2.75.98,4.12,1.48-1.37,1.1-2.62,2.93-4.13,3.17-6.71,1.08-12.65-4.05-12.84-10.66-.21-7.14,4.93-11.85,12.72-11.46Z"/><path d="m183.79,220.39c-1.06-.81-2-1.52-2.93-2.23,1.08-1.04,2-2.66,3.27-3.03,10.94-3.12,19.6-9.34,26.13-18.59.86-1.21,1.35-2.78,2.41-3.72,1.02-.91,2.57-1.22,3.89-1.8.02,1.33.53,2.92-.02,3.94-4.77,8.82-11.65,15.63-20.53,20.25-3.78,1.96-7.86,3.35-12.22,5.17Z"/><path d="m226.44,156.42c-.01,5.35-2.71,9.56-6.04,9.43-3.1-.12-5.73-4.3-5.82-9.25-.09-5.18,2.58-9.56,5.89-9.63,3.38-.07,5.99,4.05,5.98,9.44Z"/><path d="m153.78,155.08c-.19.67-.34,2.64-1.3,4.05-.93,1.36-2.76,3.05-4.08,2.96-1.6-.11-3.49-1.66-4.49-3.11-.94-1.37-1.16-3.42-1.23-5.19-.19-4.96,2.19-8.67,5.38-8.8,3.41-.14,5.84,3.66,5.71,10.1Z"/><path d="m297.39,183.6c0,5.43-3.31,10.19-8.36,11.54-1.13.3-2.55-.48-3.83-.77.6-1.12.91-2.74,1.85-3.28,7.47-4.29,7.83-9.79.94-14.59-.96-.67-1.31-2.21-1.94-3.34,1.44-.2,3.14-.98,4.29-.48,4.66,2.02,7.02,5.78,7.05,10.92Z"/></g></g></g></svg>