<?xml version="1.0" encoding="UTF-8"?><svg id="Calque_2" xmlns="http://www.w3.org/2000/svg" viewBox="0 0 550 550"><defs><style>.cls-1{fill:#81c5ee;}</style></defs><g id="Calque_1-2"><g><rect class="cls-1" width="550" height="550"/><g><path d="m328.06,417.74v16.11c9.01-.4,17.76-.8,26.5-1.18,12.46-.55,24.92-1.44,37.38-1.55,18.98-.17,35.65,6.48,49.1,19.74,31.64,31.18,62.92,62.73,94.25,94.23,1.11,1.11,1.18,3.25,1.73,4.91-1.63-.59-3.71-.73-4.83-1.84-30.2-30.04-60.41-60.07-90.37-90.34-15.53-15.69-33.87-23.43-56.03-22-9.46.61-18.95.67-28.4,1.33-1.75.12-4.01,1.48-4.99,2.96-17.96,27.05-42.78,43.92-74.76,49.28-28.68,4.81-55.58-.49-79.5-17.73-10.39-7.49-16.16-15.99-20.43-28.47-19.15-1.22-38.04.95-56.51,6.31-44.34,12.86-78.77,38.97-103.36,78.05-.18.28-.27.67-.52.84-1.42,1-2.88,1.94-4.33,2.91.11-1.72-.4-3.84.43-5.08,4.88-7.33,9.58-14.85,15.22-21.57,30.44-36.23,69.08-57.92,116.02-64.73,16.25-2.36,32.46-2.28,49.39-.19,1.66-6.83,3.38-13.68,4.98-20.55,3.62-15.5,7.13-31.03,10.79-46.52.68-2.87.57-4.78-2.45-6.51-3.11-1.78-5.68-4.52-8.38-6.97-4.11-3.74-7.87-7.92-12.22-11.36-31.31-24.69-47.55-57.01-44.91-96.71,2.97-44.63,26.23-78.1,63.82-101.36,27.4-16.96,57.8-23.15,89.78-20.35,12.33,1.08,24.48,4.12,36.74,6.08,1.94.31,4.2.03,6.04-.67,8.37-3.17,16.46-7.18,24.99-9.81,29.48-9.1,56.66,5.77,65.52,35.46,5.41,18.14,3.41,35.99-3.57,53.14-4.17,10.24-10.09,19.77-14.97,29.74-1.04,2.13-1.64,4.84-1.41,7.18,2.57,26.36,4.1,52.77,2.25,79.22-.72,10.37-2.09,20.92-4.93,30.87-8.41,29.38-29.85,45.29-58.1,53.28-6.34,1.79-12.98,2.54-19.97,3.86Zm-97.46-47.9c-.05-.06.49.76,1.12,1.5,28.81,33.87,65.98,46.24,108.93,39.33,31.73-5.11,59.36-25.3,64.4-66.16,3.73-30.22,1.9-60.41-.5-90.59-.55-6.94-4.39-11.89-10.56-15.3-4.04-2.24-7.85-4.99-11.46-7.89-6.93-5.57-9.96-5.92-18.03-1.79-19.2,9.82-38.81,11.2-59.22,3.61-3.78-1.4-8.83-.79-12.91.32-9.88,2.69-19.46,6.48-29.3,9.33-6.48,1.88-8.79,4.34-8.64,11.29.18,7.81.72,15.64.45,23.44-.37,10.63-1.12,21.36-6.89,30.75-2.01,3.28-2.62,5.97-.65,9.45.66,1.16-.22,3.19-.39,4.82-1.23-.98-3.03-1.71-3.62-2.99-6.99-15.26-24.48-19.76-37.89-9.6-16.69,12.64-14.75,41,3.62,52.59,5.77,3.64,11.83,4.96,18.49,2.42,2.07-.79,4.4-.89,6.61-1.3-1.08,2.06-2.15,4.12-3.54,6.78Zm-48.42,73.57c2.31,4.38,3.8,7.87,5.85,11,6.86,10.49,16.68,17.46,27.91,22.55,45.67,20.72,99.98,6.15,129.22-34.63.91-1.27,1.68-2.65,2.95-4.69-7.21.34-13.51.83-19.8.82-1.73,0-4.92-1.49-4.93-2.33-.04-3.53-2.62-3.43-4.65-4.03-18.47-5.46-35.59-13.62-50.99-25.28-2.24-1.7-4.48-3.44-6.91-4.84-11.9-6.89-22.82-15.12-31.17-26.05-4.02-5.27-8.31-6.87-14.41-5.47-.35,1.05-.81,2.13-1.07,3.25-5.06,21.96-10.16,43.91-15.1,65.89-.88,3.91-2.19,5.91-6.7,4.62-2.78-.8-5.87-.51-10.22-.81Z"/><path d="m395.43,283.15c-.7,6.64-4.23,12.31-8.5,12.79-4.17.47-9.16-4.57-9.72-10.88-.32-3.65.11-7.73,1.49-11.1,2.48-6.1,8.86-6.66,12.46-1.19,2.02,3.07,2.88,6.89,4.27,10.37Z"/><path d="m311.94,290.74c.9-7.29,3.98-12.35,8.46-12.75,4.58-.42,8.83,3.83,9.52,10.74.37,3.77-.06,8.01-1.5,11.48-2.29,5.5-8.48,6.06-11.89,1.16-2.16-3.1-3.1-7.06-4.59-10.63Z"/><path d="m373.89,306.42c.02,6.53-4.34,12.05-10.66,13.02-1.27.19-2.74-.91-4.11-1.41.87-.96,1.56-2.33,2.64-2.8,5.46-2.34,7.93-5.8,7.11-10.47-.84-4.79-4.58-7.08-10.77-7.24-1.26-.03-3.24-1.6-3.58-2.83-2.25-7.96-4.21-16-6.03-24.06-.23-1.01.96-2.33,1.5-3.51.98.87,2.53,1.58,2.83,2.65,1.82,6.36,3.54,12.76,4.89,19.23.58,2.79,1.81,3.75,4.51,4.18,7.25,1.17,11.65,6.35,11.67,13.22Z"/><path d="m315.45,255.39c2.35.5,5.96,1.06,9.4,2.12,1.01.31,1.59,2.03,2.36,3.11-1.23.42-2.66,1.47-3.67,1.16-12.23-3.74-22.4-.52-31.12,8.54-.84.87-2.65.8-4.01,1.16.3-1.46.13-3.32.98-4.33,6.41-7.71,14.93-11.17,26.05-11.76Z"/><path d="m353.81,356.2c-6.39-2.17-12.03-3.95-17.54-6.08-.96-.37-1.35-2.2-2-3.36,1.41-.17,3.14-.95,4.19-.41,10.82,5.53,21.33,5.22,31.82-.89,1.08-.63,2.83-.12,4.27-.14-.63,1.32-.94,3.41-1.94,3.83-6.19,2.56-12.54,4.75-18.82,7.05Z"/><path d="m212.42,322.85c-.99.09-2.07.45-2.96.19-1.1-.32-2.06-1.16-3.07-1.78.79-.92,1.41-2.31,2.4-2.68,9.15-3.38,25.65,4.51,29.28,14.01.36.94-.29,2.27-.48,3.41-1.12-.38-2.55-.46-3.31-1.21-2.68-2.66-4.67-6.36-7.8-8.16-4.14-2.38-9.09-3.35-13.69-4.93-.13.38-.25.76-.38,1.14Z"/><path d="m378.16,253.35c8.69.47,14.78,2.32,19.78,6.83.83.75.82,2.44,1.2,3.7-1.3,0-3.01.53-3.82-.1-8.54-6.56-17.4-7.28-26.91-2.25-.9.47-2.48-.35-3.74-.57.62-1.18.96-3.03,1.91-3.43,4.37-1.82,8.9-3.24,11.58-4.17Z"/></g></g></g></svg>