<?xml version="1.0" encoding="UTF-8"?><svg id="Calque_2" xmlns="http://www.w3.org/2000/svg" viewBox="0 0 550 550"><defs><style>.cls-1{fill:#adb982;}</style></defs><g id="Calque_1-2"><g><rect class="cls-1" width="550" height="550"/><g><path d="m514.21,532.86c-1.24.58-2.48,1.17-3.72,1.75-.42-1.34-1.19-2.69-1.2-4.03-.08-40.32-10.88-78.01-27.92-114.16-17.56-37.26-49.05-55.44-87.77-63.21-8.7-1.74-17.72-1.86-26.59-2.72-.23.46-.46.91-.69,1.37,2.09,2.65,4.15,5.32,6.27,7.94q4.59,5.68-1.3,9.58c-43.26,28.59-86.51,57.18-129.77,85.77q-11.05,7.3-18.58-3.68c-6.48-9.45-12.95-18.92-19.96-29.15-1.6,2.11-3,3.81-4.25,5.62-16.34,23.48-26.41,49.76-33.79,77.14-3.28,12.15-5.48,24.59-8.37,36.86-.34,1.44-1.94,2.58-2.95,3.86-.56-1.51-1.82-3.15-1.57-4.5,7.84-41.34,19.06-81.46,43.4-116.66.76-1.09,1.46-2.26,2.39-3.19,2.15-2.14,2.33-4.19.16-6.4-.46-.47-.78-1.07-1.16-1.62-4.47-6.5-4.57-6.75,2.64-9.68,3.99-1.62,5.51-3.79,5.23-8.14-.41-6.27-.1-12.59-.1-20.2-8.61,1.03-16.88,1.31-24.83,3.09-72.12,16.16-117.71,60-136.17,131.7-1.73,6.72-2.24,13.75-3.57,20.59-.28,1.43-1.65,2.64-2.51,3.96-.61-1.48-1.9-3.05-1.72-4.43,8.62-69.15,44.86-117.93,108.52-146.11,18.84-8.34,38.9-12.12,59.7-13.22,1.19-3.15.67-4.49-3.16-5.06-44.96-6.72-82.48-45.17-87.76-89.83-2.93-24.79,2.06-48.65,9.33-72.1,7.07-22.8,15.11-45.31,21.72-68.24,3.15-10.91,3.93-22.5,5.88-33.76.6-3.47-.74-5.89-3-8.42-10.19-11.4-17.61-24.22-18.51-39.89-.8-13.99,2.8-26.82,12.38-37.29,11.18-12.22,25.28-14.43,40.67-10.15,15.24,4.24,26.57,14.14,36.01,26.31,6.32,8.13,12.12,16.67,18.01,25.13,5.77,8.29,12.48,15.67,21.23,20.79,28.67,16.78,53.49,38.31,76.56,61.95,12.54,12.86,24.97,25.86,36.71,39.45,4.52,5.24,7.52,12.04,10.21,18.54,2.64,6.38.86,12.87-2.91,18.49-9.85,14.67-16.17,30.72-20.07,47.92-3.48,15.33-9.77,29.63-18.38,42.79-2.08,3.18-2.17,5.6-.07,8.4,7.27,9.69,14.49,19.43,21.95,28.97.86,1.1,3.15,1.55,4.76,1.52,37.03-.76,69.58,10.76,97.17,35.58,13.94,12.55,22.05,29.04,29.1,45.97,11.29,27.1,18.96,55.2,21.41,84.58.12,1.44.6,2.85.91,4.27v15.98ZM155.35,103.95c-2.66,13.65-5.53,28.34-8.39,43.02,9.94-1.98,17.1-1.3,23.03,2.66,1.22.81,1.7,2.72,2.52,4.13-1.59-.06-3.43.38-4.72-.27-6.74-3.41-13.58-4.38-20.61-1.27-1.46.65-3.13,2.07-3.62,3.5-6.57,19.48-12.97,39.01-19.35,58.55-.32.99-.16,2.14-.22,3,5.68.53,11.01.66,16.2,1.59,18.47,3.3,31.62,14.37,42.42,29.11,5.08,6.93,10.44,13.95,16.9,19.51,14.66,12.63,29.77,10.53,41.08-5.11,8.75-12.1,14.5-25.67,18.16-40.14,5.3-20.96.54-39.74-13.57-55.68-6.98-7.89-14.94-15.35-23.69-21.15-21.81-14.47-44.32-27.87-66.15-41.46Zm190.68,231.83c-4.73-7.74-9.62-14.69-13.44-22.19-12.52-24.6-15.24-51.33-15.9-78.38-.04-1.58,1.36-3.65,2.7-4.74,10.79-8.83,15.31-20.2,14.12-33.92-.85-9.75-7.9-17.84-15.53-18.2-11.91-.55-28.18,18.79-25.16,30.35,10.11,38.74,12.49,77.96,7.7,117.65-.19,1.55-.59,3.75-1.63,4.31-.94.51-2.87-.8-4.43-1.34-10.57,12.42-23.34,22.03-38.32,28.69-14.88,6.61-30.59,9.31-46.76,9.18v31.83c45.96-21.27,91.38-42.29,136.65-63.25Zm-187.14-53.04c5.37-1.89,11.25-3.82,17-6.1.85-.34,1.06-2.28,1.57-3.47-1.16,0-2.56-.45-3.43.05-9.46,5.33-19.08,5.85-29.07,1.59-1-.43-2.54.39-3.82.63.82,1.05,1.44,2.7,2.49,3.04,4.66,1.53,9.45,2.68,15.27,4.26Z"/><path d="m356.24,519.05c.24-56.59,35.12-104.53,86.67-121.18.47-.15.94-.57,1.38-.53,1.65.13,3.28.39,4.92.6-1.15,1.29-2.07,3.3-3.48,3.75-15.74,5-30.04,12.63-42.39,23.54-30.33,26.8-44.54,60.46-42.12,101,.09,1.49.44,3.05.14,4.47-.25,1.19-1.28,2.22-1.97,3.32-.87-1.03-2.37-1.99-2.49-3.1-.48-4.62-.55-9.29-.67-11.86Z"/><path d="m158.38,176.13c-.82,2.62-1.29,5.63-2.66,8.15-2.56,4.72-7.41,4.71-10.16.04-2.96-5.02-3.24-10.52-.58-15.65,1.07-2.06,3.73-4.55,5.67-4.55,1.95,0,4.43,2.5,5.73,4.52,1.26,1.95,1.31,4.67,2,7.5Z"/><path d="m196.33,185.31c.47-2.37.67-4.35,1.28-6.21,1.02-3.1,2.73-6.51,6.38-5.59,2.36.59,5.46,3.33,5.86,5.54.79,4.34.49,9.11-.51,13.43-.44,1.9-3.64,4.22-5.72,4.35-1.74.11-4.21-2.36-5.35-4.29-1.27-2.16-1.4-4.99-1.95-7.22Z"/><path d="m178.72,179.66c-1.04,9.04-3.75,12.43-12.28,14.67-5.48,1.44-7.91,4.14-7.77,8.79.15,4.99,3.13,7.26,7.7,8.3,1.18.27,2.08,1.76,3.11,2.69-1.4.57-2.85,1.72-4.19,1.61-5.53-.44-10.3-5.02-11.29-10.39-1.06-5.73,1.84-11.45,7.17-14.02,1.18-.57,2.47-.93,3.74-1.3,6.94-2.03,7.91-3.36,8.65-10.2.23-2.12,1.46-4.13,2.23-6.19.98,2.01,1.96,4.03,2.94,6.04Z"/><path d="m199.14,151.82c9.85.27,17.39,2.54,23.82,7.67,1.22.97,1.51,3.1,2.23,4.69-1.58-.3-3.5-.12-4.69-.96-9.09-6.48-18.82-8.5-29.64-5.24-1.37.41-3.17-.59-4.76-.93,1.15-1.16,2.12-2.96,3.5-3.36,3.63-1.05,7.44-1.49,9.54-1.87Z"/></g></g></g></svg>