<?xml version="1.0" encoding="UTF-8"?><svg id="Calque_2" xmlns="http://www.w3.org/2000/svg" viewBox="0 0 550 550"><defs><style>.cls-1{fill:#8e6bac;}</style></defs><g id="Calque_1-2"><g><rect class="cls-1" width="550" height="550"/><g id="IjhVW5.tif"><g><path d="m533.02,545.43c-4.05,1.81-4.65-1.25-5.68-3.92-8.4-21.82-16.04-43.97-25.45-65.34-13.51-30.67-31.53-58.53-56.77-81.13-19.34-17.32-41.07-30.36-66.46-36.77-1.26-.32-2.56-.5-4.53-.89v6.22c0,47.43.03,94.86-.09,142.29,0,2.14-1.52,6.15-2.12,6.11-4.23-.28-2.48-3.92-2.49-6.18-.11-38.78-.13-77.55,0-116.33.01-3.53-.96-5.62-3.96-7.67-20.93-14.33-36.94-33.21-50.55-54.47-4.66-7.28-10.94-13.52-16-19.65-3.16,10.54-5.55,21.38-9.64,31.54-7.18,17.84-19.09,32.26-35.26,42.86-2.75,1.8-3.6,3.68-3.6,6.84.1,51.59.09,103.18-.03,154.77,0,2.09-1.37,4.19-2.11,6.28-.81-2.09-2.33-4.18-2.33-6.28-.13-49.93-.1-99.85-.1-149.78v-5.67c-9.3,2.94-18.08,6.59-27.23,8.4-13.6,2.69-22.87,9.75-29.57,21.9-12.46,22.59-30.28,40.25-52.46,53.52-26.48,15.85-52.38,15.87-78.39-2.78-2.92,3.82-6.01,7.63-8.85,11.62-12.36,17.33-21.36,36.29-27.38,56.69-.28.95-.34,2.08-.9,2.81-.62.8-1.71,1.23-2.6,1.82-.53-.92-1.56-1.89-1.49-2.76.17-1.95.81-3.88,1.39-5.78,7.63-24.93,19.82-47.42,36.42-67.47-32.09-35.19-26.24-93.12,13.44-124.45,12.5-9.87,18.9-22.37,21.65-37.83,5.45-30.7,21.3-54.33,49.41-69.11,13.3-6.99,22.44-17.92,26.21-32.42,7.74-29.82,19.81-57.38,39.76-81.14.2-.23.25-.59.26-.61-4.33-4.23-9.12-7.93-12.71-12.58-18.89-24.46-13.09-61.91,12.72-81.79,19.01-14.65,40.13-17.05,62.04-7.93,21.97,9.14,33.84,26.45,36.89,49.93.1.79.37,1.56.3,1.28,13.76.85,27.05,1.02,40.17,2.62,27.27,3.34,49.06,16.66,63.81,39.78,8.26,12.93,14.35,27.25,21.4,40.95,1.46,2.83,1.08,4.75-2.57,5.18-1.45.17-2.84.78-4.66,1.3,2.56,9.17,5.16,18.19,7.6,27.26,5.47,20.32,8.86,40.96,7.57,62.06-1.83,29.77-10.75,56.65-35.28,75.63-8.37,6.48-18.47,10.72-28.51,16.4v11.47c3.66,1,7.47,1.92,11.19,3.08,38.33,11.96,67.66,36.09,91.15,67.91,21.82,29.57,36.07,62.98,48.39,97.31,2.63,7.31,5.33,14.6,8,21.9v3Zm-114.78-385.06c-1.32.21-2.12.29-2.89.48-25.91,6.36-51.79,12.84-77.76,18.99-4.79,1.13-6.66,3.34-7.27,8.15-2.44,19.43-9.62,37.16-20.29,53.51-4.63,7.09-4.91,7.05-8.74-.37-4.76-9.22-12.84-13.36-22.07-11.3-9.2,2.05-15.53,9.93-15.89,19.79-.56,15.3,11.35,28.44,27.97,30.03,4.73.45,6.24,2.46,6.02,6.45-.55,9.99,3.7,17.91,10.15,25.04,18.52,20.49,40.92,30.33,68.3,22.42,26.06-7.53,42.23-26.21,51.17-51.21,9.67-27.04,7.86-54.58,2.02-82.09-.28-1.32-2.24-2.78-3.71-3.27-5.77-1.91-11.06-.44-16.09,2.78-.91.58-2.52.06-3.81.05.44-1.27.51-3.09,1.4-3.69,2.31-1.55,4.87-3.15,7.54-3.64,4.11-.76,8.38-.6,12.96-.86-3.03-10.53-6-20.84-9-31.28Zm-215.74-49.11q6.04,6.01,11.4.63c19.5-19.65,42.92-32.05,69.92-37.79,5.42-1.15,10.89-2.1,16.5-3.18-.73-4-1.34-7.38-2.06-11.35-38.03,6.73-69.72,23.85-95.75,51.69Z"/><path d="m403.47,270.71c-.44-.41-1.51-1.41-2.58-2.4,1.08-.79,2.06-2.08,3.24-2.29,7.09-1.24,10.7-4.8,10.55-10.8-.14-5.77-3.93-9.28-10.59-10.49-1.41-.26-3.43-2.03-3.62-3.32-1.25-8.69-2.19-17.43-2.94-26.17-.12-1.4,1.17-2.93,1.81-4.4.94,1.28,2.53,2.46,2.72,3.84.94,6.89,1.58,13.83,2.17,20.76.26,3.12,1.19,4.85,4.69,5.79,7.29,1.97,11.8,9.59,10.54,16.46-1.33,7.25-8.07,13.18-15.98,13.02Z"/><path d="m375.38,194.97c1.5,0,3.08-.3,4.46.09,1.21.34,2.2,1.47,3.29,2.25-1.23.78-2.39,2.08-3.71,2.26-3.76.51-7.67.13-11.36.87-7.53,1.51-13.76,5.5-19.1,11.05-1.18,1.23-3.36,1.51-5.08,2.23.64-1.85.79-4.15,2-5.48,7.88-8.62,17.73-13.17,29.49-13.28Z"/><path d="m393.29,300.06c-12.72-.47-21.16-5.94-26.04-16.57-.64-1.4.17-3.46.31-5.22,1.22,1.04,2.92,1.85,3.58,3.17,5.66,11.29,15.86,16.08,28.05,13.2,1.51-.36,3.32.52,4.99.82-1.35,1.16-2.52,2.82-4.08,3.36-2.45.86-5.17.97-6.82,1.24Z"/><path d="m425.32,224.21c-.3,3.46-.32,7.82-5.35,8.81-3.18.63-5.71-3.85-5.72-9.46-.01-5.59,2.39-9.69,5.65-9.65,3.25.04,5.47,4.05,5.42,10.31Z"/><path d="m370,232.63c-.04-5.61,2.33-9.74,5.57-9.7,3.18.04,5.85,4.37,5.59,9.74-.19,3.95-.49,8.31-5.38,9.41-3.12.7-5.74-3.87-5.77-9.45Z"/></g></g></g></g></svg>