<?xml version="1.0" encoding="UTF-8"?><svg id="Calque_2" xmlns="http://www.w3.org/2000/svg" viewBox="0 0 550 550"><defs><style>.cls-1{fill:#81c5ee;}</style></defs><g id="Calque_1-2"><g><rect class="cls-1" width="550" height="550"/><g><path d="m314.12,260.12v26.79c12.33,3.34,24.62,6.67,36.92,9.99,29.44,7.96,58.89,15.87,88.32,23.88,18.16,4.94,32.25,15.58,41.93,31.61,11.94,19.76,23.42,39.8,34.95,59.8.82,1.42.46,3.52.65,5.3-1.57-1.08-3.74-1.8-4.62-3.29-11.36-19.14-22.51-38.4-33.76-57.61-9.63-16.43-23.66-27-42.12-31.91-29.3-7.78-58.53-15.78-88.47-23.88.56,1.82.86,3.17,1.38,4.42,8.71,21.17,17.34,42.37,26.26,63.45,1.7,4.01,1.14,6.52-1.89,9.58-13.91,14.08-27.57,28.4-41.66,42.99,6.77,9.44,13.43,18.9,20.3,28.22,2.02,2.74,2.6,5.23,1.97,8.71-4,21.87-7.68,43.79-11.47,65.7-.14.82-.13,1.77-.56,2.4-.74,1.09-1.78,1.99-2.7,2.97-.56-1.21-1.74-2.5-1.59-3.61.94-6.9,2.13-13.77,3.34-20.63,2.79-15.85,5.74-31.67,8.33-47.55.32-1.96-.72-4.53-1.92-6.27-6.15-8.88-12.45-17.67-18.94-26.3-2.27-3.02-2.03-4.96.6-7.63,13.4-13.65,26.56-27.54,39.95-41.21,2.16-2.2,2.68-3.92,1.44-6.88-9.29-22.18-18.33-44.47-27.63-66.65-.7-1.66-2.56-3.4-4.26-3.96-5.63-1.87-11.43-3.22-17.49-4.85-1.51,13.2-2.91,26.03-4.47,38.83-2.78,22.91-5.6,45.82-8.49,68.72-2.76,21.91-5.61,43.81-8.47,65.7-3.16,24.2-6.36,48.39-9.54,72.59-.3,2.31-.31,4.69-.95,6.89-.39,1.33-1.74,2.38-2.66,3.55-.6-1.33-1.82-2.74-1.69-3.99.96-9.08,2.18-18.13,3.35-27.19,3.19-24.53,6.43-49.05,9.61-73.59,3.22-24.86,6.43-49.73,9.59-74.6,1.24-9.78,2.34-19.57,3.62-30.25-5.35,4-9.75,7.48-14.34,10.67-12.34,8.59-25.9,14.22-40.96,15.57-17.32,1.56-32.93-2.77-46.81-15.44-1.07,10.53-2.08,20.15-3.03,29.77-2.24,22.82-4.47,45.64-6.67,68.46-2.14,22.16-4.23,44.33-6.35,66.49-.47,4.96-.82,9.94-1.57,14.87-.2,1.29-1.67,2.38-2.56,3.57-.61-1.32-1.84-2.7-1.74-3.96,1.01-12.59,2.2-25.16,3.41-37.73,1.83-19.02,3.7-38.03,5.56-57.05,2.2-22.49,4.42-44.97,6.6-67.46,1.81-18.69,3.6-37.38,5.37-56.07.48-5.09.9-10.2,1.41-15.95-4.17,0-7.8-.2-11.39.12-1.19.11-2.59,1.33-3.33,2.43-12.93,19.14-25.84,38.3-38.5,57.62-.92,1.4-.61,4.47.31,6.09,7.48,13.13,14.97,26.28,23.07,39.04,3.07,4.83,2.24,7.71-1.33,11.54-9.07,9.74-17.69,19.88-26.62,29.75-2.08,2.3-2.71,4.42-2.14,7.6,2.91,16.33,5.55,32.72,8.1,49.11.18,1.19-1.17,2.61-1.81,3.93-.89-.98-2.4-1.85-2.59-2.95-3.09-17.82-6.1-35.65-8.85-53.53-.24-1.58,1.02-3.76,2.2-5.12,10.04-11.54,20.23-22.96,30.64-34.72-1.1-1.98-2.17-3.99-3.32-5.95-7.58-12.89-15.07-25.82-22.84-38.59-1.75-2.88-1.58-4.84.25-7.54,12.14-17.87,24.11-35.86,36.12-53.82.9-1.34,1.71-2.74,2.81-4.5-28.16-2.35-54.1.06-74.15,22.84-25.5,28.97-51.41,57.58-77.14,86.34-.78.87-1.41,2-2.38,2.52-.97.52-2.27.43-3.42.61,0-1.17-.46-2.69.11-3.45,1.98-2.66,4.31-5.06,6.53-7.54,24.3-27.14,48.63-54.26,72.91-81.42,14.67-16.41,32.89-24.85,54.95-24.86,18.13,0,36.27,0,54.4,0h5.66v-27.92c-9.22-1.28-18.48-2.11-27.54-3.93-13.31-2.68-26.48-6.07-39.72-9.15-3.06-.71-4-2.35-3.96-5.69.23-18.29.42-36.58,0-54.86-.72-31.27-1.86-62.54,7.7-92.93,11.96-38.05,36.1-63.55,76.06-71.46,35.89-7.11,68.22,2.07,96.78,24.45,32.39,25.37,51.42,59.43,62.57,98.39,6.88,24.06,9.91,48.75,11.97,73.6.3,3.6-.82,5.73-3.94,7.66-27.89,17.32-58.21,27.13-90.85,29.97-.81.07-1.61.19-2.8.32Zm-45.8-158.41c-1.23,2.91-1.91,5.58-3.4,7.67-1.15,1.6-3.29,3.42-5.05,3.48-9.14.35-18.29.1-27.44.19-3.24.03-4.43-1.34-4.33-4.52.16-4.98.04-9.97.04-14.95-2.73,4.72-4.74,9.43-6.25,14.3-1.23,3.97-3.35,5.44-7.61,5.26-8.23-.36-16.49-.1-25.3-.1-.95,19.59-2.59,38.49-2.5,57.38.05,10.3,1.85,20.95,4.89,30.81,14.81,47.98,60.34,52.42,91.13,32.1,13.1-8.64,22.89-20.29,29.76-34.22,2.45-4.97,5.08-6.44,10.53-6.05,11.55.83,21.4-5.45,25.68-15.26,4.22-9.69,2.21-21.08-5.06-28.69-7.57-7.92-18.65-10.21-29.34-6.07-4.96,1.92-5.69,1.45-5.97-3.93-.39-7.43-.77-14.86-1.18-22.79-6.19,0-11.97.07-17.75-.02-5.13-.08-11.27,1.32-15.06-1.02-3.24-2-3.77-8.39-5.78-13.55Zm41.13,112.59c-6.74,6.99-13.58,12.56-18.5,19.49-13.2,18.57-29.96,32.9-49.76,43.66-6.08,3.3-9.82,6.53-8.35,13.86.74,3.67-1.29,5.02-4.9,4.86-4.43-.2-8.88-.05-13.57-.05-1.49,15.78-2.98,30.96-4.25,46.15-.13,1.56.63,3.64,1.71,4.78,8.22,8.61,18.39,13.5,30.19,14.78,22.75,2.48,41.8-6.21,59.4-19.62,6.99-5.32,12.24-10.9,12.37-20.62.13-9.69,1.87-19.36,2.97-29.65-7.1.49-7.43-3.62-7.38-8.69.19-19.62.08-39.24.08-58.86,0-3.12,0-6.24,0-10.08Z"/><path d="m122.97,431.81c-.89,19.74-1.73,39.48-2.76,59.21-.08,1.62-1.42,3.18-2.17,4.76-.76-1.72-2.22-3.46-2.16-5.15,1.4-37.16,2.96-74.32,4.51-111.48.12-2.98.22-5.98.64-8.93.12-.86,1.35-1.57,2.07-2.34.73.9,1.69,1.71,2.11,2.74.35.85.07,1.96.03,2.96-.76,19.41-1.53,38.82-2.29,58.23Z"/><path d="m262.05,143.36c-.03,6.25-2.98,11.22-6.73,11.31-3.86.1-7.19-5.28-7.15-11.56.04-6.09,3.12-11.06,6.92-11.17,4.08-.11,6.99,4.66,6.97,11.41Z"/><path d="m209.12,142.46c.03,6.48-3.11,11.66-7,11.56-3.78-.1-7-5.6-6.89-11.78.11-6.05,3.39-11.12,7.12-11.03,3.78.1,6.75,5.03,6.77,11.26Z"/><path d="m224.28,152.22c.31-2,.43-4.51,1.18-6.82.34-1.05,1.93-1.7,2.95-2.53.54,1.06,1.57,2.15,1.52,3.18-.14,2.79-.75,5.56-1.17,8.33-.4,2.65-1.47,4.16-4.6,3.65-4.11-.67-7.23.81-8.19,5.2-.93,4.28,1.06,6.83,6.09,8.65,1.13.41,1.96,1.66,2.93,2.52-1.35.58-2.71,1.69-4.03,1.65-4.43-.14-8.7-4.17-9.67-8.67-1.05-4.9.94-10.02,5.24-12.4,2.1-1.16,4.56-1.66,7.75-2.77Z"/><path d="m230.58,205.83c-3.42-.63-6.88-1.09-10.22-2-.86-.23-1.34-1.86-2-2.85,1.09-.48,2.36-1.6,3.24-1.35,9.81,2.85,18.68.9,27.04-4.64.75-.49,2.24.14,3.39.24-.44,1.25-.51,2.99-1.39,3.66-5.86,4.49-12.65,6.45-20.05,6.93Z"/><path d="m330.8,157.19c.42.39,1.46,1.39,2.51,2.38-1.1.79-2.16,2.2-3.29,2.26-5.51.31-9.26,3-12.06,7.59-.6.98-2.16,1.37-3.28,2.03-.21-1.42-.99-3.08-.52-4.23,2.3-5.63,9.58-10.2,16.64-10.03Z"/></g></g></g></svg>