<?xml version="1.0" encoding="UTF-8"?><svg id="Calque_2" xmlns="http://www.w3.org/2000/svg" viewBox="0 0 550 550"><defs><style>.cls-1{fill:#81c5ee;}</style></defs><g id="Calque_1-2"><g><rect class="cls-1" width="550" height="550"/><g><path d="m99.97,253.63c-6.31-9.42-9.23-19.8-7.1-31.14,2.26-11.96,9.09-20.77,19.51-26.99,1.3-.78,2.7-3,2.55-4.38-2.78-25.31,12-45.09,37.06-49.26.64-.11,1.28-.22.64-.11,3.67-7.27,6.15-14.29,10.34-20.08,11.65-16.12,28.03-21.55,47.33-18.44,2.66.43,3.76-.26,5.28-2.09,13.26-16,33.15-21.01,52.61-13.63,1.58.6,4.2.3,5.58-.67,19.73-13.77,41.74-13.4,61.05,1.08,1.39,1.05,3.64,1.79,5.3,1.52,22.06-3.63,42.1,7.22,50.7,27.95,1.19,2.86,2.72,3.41,5.51,3.55,13.78.68,25.95,5.17,35.44,15.67,5.93,6.56,8.83,14.28,9.51,23.03.12,1.61,1.25,3.79,2.58,4.56,20.23,11.73,26.66,31.58,16.93,52.83-.28.6-.47,1.25-.42,1.12,4.98,4.77,10.42,8.78,14.32,13.95,10.93,14.5,9.79,34.42-2.43,48.74-2.34,2.75-2.35,4.63-1.05,7.74,5.56,13.35,6.94,26.93,1.05,40.62-3.19,7.41-8.07,13.45-15.33,17.07-2.99,1.49-3.46,3.36-3.32,6.29.52,11.02-1.22,21.56-7.7,30.83-6.67,9.54-15.54,15.34-27.84,15.45-2.35,16.43-12.17,26.55-27.23,31.83-8.62,3.02-17.6,3.31-26.56,1.48-2.78-.57-4.42.05-6.16,2.43-7.71,10.55-18.02,17-31.09,18.67-2.49.32-3.96,1.06-3.84,3.97.19,4.65-.11,9.32.11,13.97.34,7.3,4.41,11.13,11.84,11.15,25.45.05,50.89.25,76.34-.03,30.04-.33,55.52,9.86,76.29,31.68,3.44,3.61,7.17,6.96,10.51,10.66.99,1.1,1.09,2.99,1.59,4.53-1.65-.48-3.74-.47-4.86-1.51-4.89-4.51-9.44-9.37-14.21-14.01-17.99-17.49-39.57-26.33-64.65-26.5-15.95-.11-31.9-.02-48.06-.02-.96,4.22-1.57,8.31-2.84,12.18-4.61,14.04-14.01,24.44-26.09,32.38-23.29,15.31-49.16,20.18-76.59,17.71-19.69-1.77-38.04-7.56-54.22-19.21-14.64-10.54-24.53-24.12-26.44-43.07-8.01,0-15.97-.21-23.91.05-14.09.46-28.3.18-42.21,2.08-18.08,2.46-33.42,11.48-46.48,24.23-5.12,5-10.07,10.16-15.27,15.07-.8.76-2.52.54-3.81.77.17-1.29-.14-3.03.58-3.81,16.3-17.57,33.48-34.03,57.9-39.53,8.53-1.92,17.35-3.31,26.06-3.46,26.1-.45,52.22-.15,78.33-.17,9.95,0,13.53-3.55,13.6-13.46.04-5.44,0-10.89,0-16.41-24.55.64-39-11.02-44.25-32.94-8.16-1.86-16.11-2.57-23.13-5.5-15.36-6.4-24.82-17.85-26.15-35.15-.11-1.45-2.23-3.32-3.83-4-14.94-6.27-25.95-16.05-29.38-32.58-2.09-10.08-.28-19.47,6.05-27.62-20.83-29.43-22.06-41.99-5.98-61.07Zm138.5-11.82c-9.8,5.29-18.86,11.32-28.78,15.13-6.56,2.52-9.44,5.38-10.43,12.37-3.83,27.02-7.72,53.98-3.21,81.29,3.59,21.7,11.16,41.63,26.44,58,30.1,32.28,73.66,32.35,104.01.28,18.5-19.55,25.93-43.52,28.33-69.6,1.8-19.49.06-38.85-2.17-58.18-.19-1.61-1.95-3.86-3.46-4.35-8.63-2.8-14.52-8.48-18.35-16.46-1.49-3.1-2.55-6.41-3.78-9.57-.44-.08-.81-.27-1.07-.17-13.58,5.12-26.61,4.45-39.11-3.36-.83-.52-2.56-.28-3.54.23-16.82,8.71-32,6.12-44.87-5.62Zm-52.68,245.31c1.87,6.03,2.91,11.27,5.07,16,6.59,14.46,18.2,24.16,32.21,30.65,34.19,15.83,68.74,15.84,103.02.21,13.09-5.97,23.99-14.91,31.15-27.74,3.23-5.78,5.47-11.92,5.46-19.11-9.5,0-18.63.06-27.75-.02-9.83-.08-16.07-6.39-16.17-16.28-.07-6.15-.01-12.31-.01-18.47,0-9.74,0-19.48,0-29.19-7.36,3.58-14.34,6.91-21.26,10.36-4.25,2.13-8.67,4.06-12.54,6.77-14.93,10.46-30.49,19.65-48.52,23.44-4.53.95-5.48,2.51-5.43,6.68.14,10.52-6.17,16.64-16.7,16.69-8.95.04-17.91,0-28.52,0Zm3.03-164.5c.17-.44.44-.85.48-1.28,1.25-13.35,2.41-26.7,3.76-40.04.37-3.68-1.92-3.69-4.31-3.67-8.42.07-15.6,6.77-16.7,15.51-1.54,12.14,4.67,23.13,16.77,29.49Zm171.6-.03c10.13-6.74,14.97-18.41,12.08-28.52-1.9-6.64-7.82-11.35-14.49-11.43.79,13.16,1.59,26.32,2.41,39.95Z"/><path d="m270.69,292.5c-.27,5.98-.61,11.95-.77,17.93-.07,2.54-.74,3.75-3.62,4.15-6.85.97-10.63,5.08-10.82,10.95-.2,5.88,3.22,9.76,10.02,11.82,1.21.37,2.1,1.82,3.14,2.76-1.44.48-2.92,1.46-4.32,1.35-6.62-.52-12.44-6.31-13.3-12.87-1.05-8,2.66-14.97,10.07-17.43,3.3-1.1,4.3-2.64,4.41-5.87.33-9.97.82-19.93,1.52-29.88.11-1.52,1.6-2.94,2.46-4.4.65,1.51,1.84,3.03,1.84,4.54,0,5.65-.41,11.29-.66,16.94h.04Z"/><path d="m237,301.04c-1.31,3.78-2.06,7.56-3.87,10.73-2.17,3.8-5.75,3.63-8.48.22-4.02-5.03-3.99-17.1.04-22.06,2.75-3.38,6.32-3.5,8.48.33,1.8,3.18,2.53,6.97,3.83,10.78Z"/><path d="m304.85,301.15c1.29-3.85,1.97-7.66,3.77-10.84,2.27-4.01,6.05-3.78,8.78-.07,3.77,5.14,3.69,16.73-.16,21.68-2.69,3.45-6.26,3.67-8.48-.1-1.84-3.15-2.6-6.93-3.91-10.67Z"/><path d="m310.66,271.52c7.98,1.07,14.67,3.61,20.26,8.75.8.74.71,2.45,1.03,3.71-1.31-.09-3.04.32-3.88-.36-9.63-7.77-19.74-8.49-30.58-2.75-.94.5-2.55-.27-3.84-.45.59-1.19.9-3.07,1.83-3.45,4.98-2.02,10.11-3.67,15.19-5.45Z"/><path d="m228.69,270.11c5.93,1.88,11.59,3.5,17.07,5.57,1.17.44,1.72,2.54,2.55,3.88-1.46.06-3.21.67-4.35.09-10.19-5.18-20.26-5.2-30.48-.09-1,.5-2.56-.13-3.87-.23.64-1.27,1-3.31,1.98-3.67,5.5-2.03,11.14-3.67,17.09-5.54Z"/><path d="m268.01,372.51c7.89.43,14.51-2.32,20.28-7.64,1.19-1.1,3.21-1.31,4.85-1.93-.61,1.79-.71,4.09-1.91,5.27-7.14,7-15.88,9.96-25.81,8.87-1.61-.18-3.06-1.8-4.58-2.75,1.56-.64,3.12-1.3,4.7-1.9.28-.11.65.02.99.03.5.02.99.05,1.49.06Z"/></g></g></g></svg>