<?xml version="1.0" encoding="UTF-8"?><svg id="Calque_2" xmlns="http://www.w3.org/2000/svg" viewBox="0 0 550 550"><defs><style>.cls-1{fill:#adb982;}</style></defs><g id="Calque_1-2"><g><rect class="cls-1" width="550" height="550"/><g><path d="m310.87,388.51c-.8,4.62-1.38,9.06-2.35,13.4-2.67,11.95-7.53,23.01-14.28,33.2-14.94,22.58-34.46,40.52-57.36,54.59-19.92,12.23-39.69,10.91-56.76-3.66-6.45-5.5-12.2-12.42-16.44-19.75-5.23-9.04-8.54-19.19-12.82-29.18-1.34,1.09-3.14,2.5-4.87,3.99-32.51,28.08-54.12,62.99-65.4,104.38-.22.8-.1,1.84-.58,2.38-.77.88-1.91,1.44-2.89,2.14-.53-1.08-1.69-2.3-1.49-3.22.88-4.04,2.02-8.04,3.29-11.98,14.53-45.14,40.96-81.66,79.6-109.18,3.27-2.33,3.89-4.68,3.63-8.24-2.04-28.69-3.94-57.38-5.91-86.07-.17-2.46-.53-4.91-.86-7.85-2.86.31-5.45.72-8.04.85-30.28,1.49-57.31-6.97-81-26.14-15.03-12.17-22.3-27.15-21.03-46.9,2.41-37.32,7.64-73.99,22.23-108.71,15.16-36.08,37.56-66.46,71.28-87.45,20.86-12.98,43.89-19.34,68.24-21.3,30.42-2.45,60.42-.2,89.75,8.51,34.63,10.28,59.83,32.13,77.1,63.59,13.65,24.87,21.53,51.67,26.81,79.33,4.4,23.08,6.34,46.4,6.07,69.91-.22,18.38-8.33,31.61-24.94,39.78-25.88,12.74-53.23,19.32-82,20.19-1.33.04-2.65.17-3.97.28-.13.01-.25.19-.87.69,2.66,22.34,5.35,45.02,8,67.28,10.68,0,21.09-.36,31.46.06,49.37,2,93.29,18.85,132.11,49.24,14.09,11.03,26.49,23.75,37.04,38.21.95,1.3.83,3.39,1.2,5.11-1.58-.76-3.7-1.1-4.66-2.34-36.23-46.77-83.97-73.91-142.04-83.39-15.61-2.55-31.32-3.63-47.26-1.75Zm-182.17-218.57c-.26,1.9-.47,3.36-.67,4.83-1.51-.26-3.18-.2-4.52-.84-7.49-3.57-15.4-4.51-23.34-2.79-20.85,4.52-28.51,21.74-27.36,36.31,1.49,18.81,15.76,32.03,34.16,32.19,4.16.03,5.6,1.41,6.53,5.41,4.21,18.01,11.74,34.61,23.31,49.08,28.47,35.61,65.16,50.43,110.19,41.24,31.89-6.51,53.41-26.75,67.85-55.22,8.84-17.42,14.38-36.01,18.75-54.92,1.26-5.45,3.01-6.99,8.75-6.74,12.23.54,22.02-4.76,27.73-15.88,5.56-10.84,4.75-21.74-2.55-31.46-7.52-10.01-17.91-14.24-30.3-11.31-4.77,1.13-6.04-.52-7.12-4.53-3.62-13.39-9.49-25.82-16.95-37.49-10.42-16.28-23.54-29.95-39.57-41.12-40.06,44.38-88.37,75.43-144.91,93.24Zm162.11,150.25c-.46-.14-.67-.27-.77-.22-.59.3-1.2.59-1.72.99-14.93,11.51-31.7,18.52-50.44,20.88-2.15.27-4.47,1.4-6.16,2.8-18.62,15.42-39.7,25.89-63.18,31.43-3.51.83-4.64,1.94-4.39,5.51,1.95,27.03,3.7,54.07,5.62,81.1.18,2.58.3,5.64,1.69,7.57,13.48,18.66,35.9,31.62,61.91,16.09,8.79-5.25,17.03-11.61,24.9-18.21,16.69-14.01,31.01-30.03,40.14-50.21,2.44-5.39,3.03-10.59,2.13-16.39-1.47-9.51-2.33-19.12-3.47-28.69-2.09-17.59-4.19-35.18-6.27-52.64Zm-127.79,136.03c.52-.07,1.05-.14,1.57-.21-.61-8.93-1.23-17.86-1.91-27.74-3.28,2.76-7.64,3.2-6.23,7.84,2.05,6.75,4.37,13.41,6.57,20.11Z"/><path d="m285.11,185.43c-1.54,4.08-2.43,8.41-4.65,11.87-4.28,6.66-12.19,6.45-16.93.07-4.63-6.23-4.82-17.51-.4-23.93,5.11-7.43,13.51-7.36,18.02.51,1.9,3.32,2.58,7.33,3.97,11.49Z"/><path d="m198.32,189.24c-1.66,4.15-2.67,8.63-5.06,12.19-4.15,6.2-11.81,5.93-16.38.02-4.83-6.25-5.18-17.36-.76-24,5.06-7.61,13.46-7.71,18.07.15,1.94,3.31,2.65,7.34,4.13,11.64Z"/><path d="m235.11,209.13c13.41,4.6,18.19,10.85,17.01,21.6-.73,6.63-6.23,13.31-12.46,14.67-1.32.29-2.89-.59-4.34-.93.92-1.11,1.61-2.71,2.79-3.27,6.93-3.28,10.44-8.42,9.61-14.6-.93-7-5.07-10.58-13.46-12.24-1.26-.25-3.08-2.11-3.15-3.31-.46-8.12-.63-16.26-.6-24.39,0-1.26,1.47-2.53,2.27-3.79.78,1.23,2.19,2.45,2.23,3.7.21,7.46.1,14.92.1,22.55Z"/><path d="m219.57,290.69c-13.1-.32-23.63-5.76-31.42-16.31-.85-1.14-.59-3.1-.85-4.68,1.44.6,3.36.79,4.24,1.85,12.54,15.08,27.96,18.42,45.81,9.87,1.25-.6,2.97-.24,4.46-.33-.74,1.43-1.14,3.71-2.26,4.15-6.39,2.47-12.95,4.5-19.45,6.68-.18-.41-.35-.82-.53-1.23Z"/><path d="m92.76,207.16c.24-9.06,5.36-17.25,13.51-20.53,1.53-.62,3.56,0,5.36.04-1.06,1.31-1.86,3.16-3.23,3.85-9.28,4.63-12.86,13.47-9.39,23.29.48,1.37-.1,3.12-.19,4.7-1.39-1.06-3.4-1.83-4.02-3.23-1.12-2.51-1.41-5.39-2.04-8.11Z"/><path d="m355.68,192.63c-.16.91-.17,2.67-.83,4.14-.5,1.1-1.85,1.81-2.81,2.69-.51-1.21-1.66-2.56-1.44-3.61,1.13-5.29-.08-9.98-3.41-14-1.53-1.86-3.97-2.94-5.76-4.62-.89-.84-1.26-2.24-1.86-3.39,1.33-.21,2.84-.94,3.96-.55,6.54,2.23,12.06,10.88,12.16,19.35Z"/></g></g></g></svg>